<svg width="256" height="256" viewBox="0 0 256 256" xmlns="http://www.w3.org/2000/svg">
  <!-- Clean, minimal dog face logo - warm golden retriever colors -->

  <!-- Left ear -->
  <ellipse cx="68" cy="82" rx="34" ry="56" fill="#B45309" transform="rotate(-15 68 82)"/>

  <!-- Right ear -->
  <ellipse cx="188" cy="82" rx="34" ry="56" fill="#B45309" transform="rotate(15 188 82)"/>

  <!-- Head -->
  <circle cx="128" cy="138" r="82" fill="#F59E0B"/>

  <!-- Snout -->
  <ellipse cx="128" cy="174" rx="40" ry="32" fill="#FDE68A"/>

  <!-- Left eye -->
  <circle cx="96" cy="124" r="11" fill="#1F2937"/>
  <circle cx="99" cy="121" r="3.5" fill="white"/>

  <!-- Right eye -->
  <circle cx="160" cy="124" r="11" fill="#1F2937"/>
  <circle cx="163" cy="121" r="3.5" fill="white"/>

  <!-- Nose (the boop!) -->
  <ellipse cx="128" cy="166" rx="15" ry="12" fill="#1F2937"/>
  <ellipse cx="124" cy="164" rx="4" ry="3" fill="white" opacity="0.3"/>

  <!-- Mouth -->
  <path d="M114 184 Q128 198 142 184" stroke="#92400E" stroke-width="3" stroke-linecap="round" fill="none"/>

  <!-- Sparkle -->
  <path d="M218 48 L222 60 L234 64 L222 68 L218 80 L214 68 L202 64 L214 60 Z" fill="#8B5CF6"/>
  <circle cx="38" cy="72" r="6" fill="#8B5CF6"/>
</svg>
